<?xml version="1.0" encoding="UTF-8" standalone="no"?>
<svg
   xmlns:dc="http://purl.org/dc/elements/1.1/"
   xmlns:cc="http://creativecommons.org/ns#"
   xmlns:rdf="http://www.w3.org/1999/02/22-rdf-syntax-ns#"
   xmlns:svg="http://www.w3.org/2000/svg"
   xmlns="http://www.w3.org/2000/svg"
   xmlns:sodipodi="http://sodipodi.sourceforge.net/DTD/sodipodi-0.dtd"
   xmlns:inkscape="http://www.inkscape.org/namespaces/inkscape"
   version="1.1"
   x="0px"
   y="0px"
   viewBox="0 0 73.253998 92.54129"
   enable-background="new 0 0 100 100"
   xml:space="preserve"
   id="svg2153"
   sodipodi:docname="bigfoot_right.svg"
   width="73.253998"
   height="92.54129"
   inkscape:version="0.92.5 (2060ec1f9f, 2020-04-08)"><metadata
     id="metadata2159"><rdf:RDF><cc:Work
         rdf:about=""><dc:format>image/svg+xml</dc:format><dc:type
           rdf:resource="http://purl.org/dc/dcmitype/StillImage" /><dc:title /></cc:Work></rdf:RDF></metadata><defs
     id="defs2157" /><sodipodi:namedview
     pagecolor="#ffffff"
     bordercolor="#666666"
     borderopacity="1"
     objecttolerance="10"
     gridtolerance="10"
     guidetolerance="10"
     inkscape:pageopacity="0"
     inkscape:pageshadow="2"
     inkscape:window-width="2560"
     inkscape:window-height="1016"
     id="namedview2155"
     showgrid="false"
     fit-margin-top="0"
     fit-margin-left="0"
     fit-margin-right="0"
     fit-margin-bottom="0"
     inkscape:zoom="6.656"
     inkscape:cx="36"
     inkscape:cy="34.98"
     inkscape:window-x="0"
     inkscape:window-y="27"
     inkscape:window-maximized="1"
     inkscape:current-layer="svg2153" /><path
     d="m 54.919,29.442288 c -0.061,-0.002 -0.104,-0.028 -0.129,-0.078 l -0.019,-0.077 c -0.759,-0.577 -1.462,-1.403 -2.109,-2.478 -0.257,-0.427 -0.772,-1.418 -1.544,-2.977 -0.608,-1.229 -1.153,-2.149 -1.634,-2.759 -0.691,-0.876 -1.486,-1.478 -2.384,-1.805 0.066,0 0.112,-0.026 0.138,-0.077 l 0.02,-0.08 0.939,-0.469 c -0.521,-0.25 -1.078,-0.653 -1.667,-1.21 -0.316,-0.299 -0.828,-0.841 -1.536,-1.624 -0.648,-0.72 -1.161,-1.246 -1.535,-1.576 -0.584,-0.513 -1.144,-0.868 -1.679,-1.067 h 1.094 c 0,-0.053 -0.026,-0.105 -0.078,-0.156 -0.053,-0.054 -0.08,-0.106 -0.08,-0.157 -1.268,-0.635 -2.57,-1.178 -3.905,-1.632 -1.085,-0.371 -2.128,-0.657 -3.129,-0.857 -0.041,-0.021 -0.083,-0.043 -0.127,-0.067 -0.492,-0.081 -1.146,-0.47 -1.96,-1.169 -0.814,-0.7 -1.683,-2.029 -2.604,-3.988 -0.922,-1.959 -1.916,-3.308 -2.98,-4.047 C 26.951,0.35128799 25.81,-0.01171201 24.587,2.8798771e-4 23.367,0.01228799 22.319,0.15928799 21.445,0.44128799 c -0.933,0.306 -1.77,0.73900001 -2.51,1.30100001 -1.771,1.343 -2.656,3.115 -2.656,5.316 0.702,4.968 2.088,8.399 4.156,10.295 -0.112,0.168 -0.221,0.347 -0.328,0.538 -0.31,0.555 -0.627,1.303 -0.95,2.244 -0.185,0.534 -0.458,1.357 -0.822,2.467 -0.166,0.468 -0.334,0.896 -0.504,1.282 -0.177,0.404 -0.356,0.764 -0.537,1.079 h 0.233 c 0.058,0 0.185,-0.103 0.38,-0.308 0.24,-0.255 0.399,-0.414 0.48,-0.474 h 0.157 c -0.521,2.142 -1.041,3.709 -1.558,4.7 -0.742,1.428 -1.787,2.47 -3.137,3.128 v 0.155 h 1.721 c -0.96,0.793 -2.216,1.559 -3.768,2.293 -1.413,0.67 -2.873,1.22 -4.382,1.651 -0.152,0.043 -0.306,0.085 -0.458,0.127 l -0.021,0.078 c -0.026,0.053 -0.071,0.08 -0.139,0.08 0.085,0.084 0.197,0.156 0.335,0.215 0.149,0.064 0.301,0.096 0.448,0.096 -0.44,0.296 -1.074,0.645 -1.901,1.046 -1.119,0.542 -1.806,0.883 -2.062,1.025 -1.567,0.847 -2.669,1.826 -3.306,2.935 0.302,-0.024 0.645,-0.129 1.028,-0.316 0.416,-0.204 0.67,-0.306 0.764,-0.306 h 0.163 c -0.064,0.073 -0.13,0.148 -0.196,0.223 -0.1,0.116 -0.195,0.231 -0.289,0.347 -0.012,0.015 -0.023,0.031 -0.036,0.046 -1.166,1.487 -1.75,3.036 -1.75,4.643 0,0.654 0.178,1.291 0.534,1.913 0.324,0.563 0.771,1.078 1.343,1.544 0.535,0.431 1.119,0.772 1.753,1.024 0.629,0.247 1.219,0.369 1.769,0.369 0.407,0 0.677,-0.028 0.807,-0.086 0.15,-0.063 0.324,-0.244 0.523,-0.54 -0.114,-0.111 -0.296,-0.215 -0.546,-0.308 -0.146,-0.052 -0.374,-0.127 -0.678,-0.227 -0.54,-0.205 -0.811,-0.522 -0.811,-0.95 0,-0.234 0.164,-0.468 0.494,-0.7 0.284,-0.206 0.736,-0.442 1.358,-0.709 0.351,-0.152 1.036,-0.426 2.056,-0.818 1.063,-0.412 1.923,-0.757 2.581,-1.036 2.289,-0.969 4.306,-2.014 6.05,-3.134 2.357,-1.521 4.387,-3.276 6.088,-5.265 v -0.155 c 0.01,0.046 0.021,0.093 0.033,0.141 v 0.002 c 0.154,0.561 0.424,1.183 0.808,1.864 0.014,0.019 0.416,0.672 1.207,1.96 0.495,0.797 0.854,1.487 1.081,2.07 0.241,0.605 0.389,1.202 0.444,1.792 0.018,0.18 0.027,0.362 0.027,0.546 0,1.129 -0.457,2.332 -1.37,3.61 -0.287,0.403 -0.756,0.994 -1.405,1.775 -0.031,0.037 -0.063,0.074 -0.095,0.11 -0.2,0.154 -0.448,0.341 -0.744,0.56 -0.84,0.641 -1.421,1.212 -1.745,1.712 0.026,0 0.053,-0.008 0.081,-0.022 0.05,-0.025 0.076,-0.07 0.076,-0.135 h 0.469 c -0.137,0.356 -0.388,0.749 -0.755,1.18 l -1.064,1.142 c -0.437,0.469 -0.761,0.88 -0.973,1.231 -0.271,0.443 -0.431,0.888 -0.482,1.335 0.178,-0.124 0.337,-0.22 0.474,-0.288 0.187,-0.08 0.338,-0.152 0.455,-0.217 h 0.155 c -0.176,0.354 -0.468,1.023 -0.872,2.007 -0.206,0.502 -0.441,1.083 -0.708,1.745 -0.655,1.628 -1.277,2.935 -1.863,3.916 0.066,0 0.25,-0.078 0.548,-0.234 0.256,-0.132 0.425,-0.208 0.508,-0.227 0.027,-0.05 0.04,-0.098 0.042,-0.142 v 0.135 c -0.012,0 -0.025,0.002 -0.042,0.007 -0.026,0.06 -0.064,0.126 -0.115,0.199 -0.104,0.143 -0.157,0.283 -0.157,0.419 0,0.467 0.155,1.17 0.469,2.109 0.313,0.938 0.471,1.67 0.471,2.195 0,0.54 -0.206,1.285 -0.62,2.24 -0.207,0.475 -0.419,0.901 -0.634,1.279 h 0.314 c 0.039,0 0.146,-0.04 0.319,-0.122 0.204,-0.096 0.403,-0.207 0.6,-0.332 0.007,-0.004 0.014,-0.009 0.021,-0.014 -0.052,0.104 -0.092,0.263 -0.117,0.474 -0.008,0.063 -0.015,0.131 -0.021,0.204 -0.013,0.176 -0.125,0.751 -0.337,1.731 -10e-4,0.014 -0.003,0.026 -0.005,0.04 -0.121,0.84 -0.263,1.489 -0.425,1.948 -0.237,0.669 -0.581,1.196 -1.033,1.585 h 0.661 c 0.145,-0.082 0.253,-0.142 0.323,-0.183 0.123,-0.069 0.199,-0.12 0.229,-0.147 h 0.11 c -0.496,1.404 -0.992,2.526 -1.485,3.365 -0.785,1.333 -1.617,2.091 -2.498,2.27 0.052,0.15 0.327,0.213 0.827,0.19 0.536,-0.054 0.854,-0.08 0.95,-0.08 -0.016,0.052 -0.031,0.101 -0.047,0.147 -0.625,0.58 -1.358,0.94 -2.202,1.085 -1.308,0.37 -2.333,0.688 -3.076,0.951 -2.791,0.992 -4.186,2.021 -4.186,3.091 0,0.942 0.783,1.544 2.353,1.804 0.539,0.091 1.192,0.142 1.963,0.155 0.813,-0.005 1.356,-0.006 1.632,-0.006 3.367,0 6.339,-0.156 8.92,-0.468 1.979,-0.241 3.522,-0.56 4.63,-0.952 0.896,-0.454 1.457,-1.09 1.686,-1.912 0.097,-0.343 0.135,-0.72 0.111,-1.128 l 0.648,1.062 c 0.496,-2.16 0.576,-4.356 0.24,-6.587 -0.006,-0.004 -0.013,-0.008 -0.019,-0.011 v -0.112 c 0.006,0.042 0.013,0.083 0.019,0.123 0.187,0.126 0.384,0.274 0.593,0.442 0.166,0.115 0.367,0.185 0.601,0.208 -0.053,-0.218 -0.104,-0.486 -0.151,-0.807 -0.046,-0.314 -0.069,-0.541 -0.069,-0.683 0,-0.536 0.057,-1.043 0.171,-1.519 0.075,-0.313 0.202,-0.695 0.381,-1.147 0.194,-0.495 0.32,-0.848 0.377,-1.055 0.115,-0.408 0.174,-0.821 0.174,-1.24 0,-0.194 -0.004,-0.338 -0.014,-0.433 -0.016,-0.155 -0.045,-0.281 -0.089,-0.377 0.102,0.207 0.233,0.492 0.397,0.853 0.144,0.304 0.266,0.528 0.366,0.674 0.178,-0.496 0.278,-0.843 0.307,-1.045 0.016,-0.125 0.023,-0.494 0.023,-1.105 0,-0.092 -0.035,-0.524 -0.108,-1.296 -0.073,-0.772 -0.111,-1.203 -0.111,-1.294 0,-0.336 0.029,-0.624 0.086,-0.866 0.031,-0.131 0.095,-0.319 0.19,-0.565 0.172,-0.445 0.265,-0.962 0.274,-1.55 l 0.772,0.943 c -0.147,-1.448 0.335,-2.813 1.447,-4.099 0.072,-0.083 0.232,-0.192 0.48,-0.325 -0.199,0.726 -0.238,1.813 -0.122,3.264 v 0.156 c 0.07,0 0.147,-0.032 0.233,-0.1 0.055,-0.038 0.13,-0.106 0.229,-0.206 10e-4,-0.055 0.004,-0.11 0.006,-0.165 v 0.157 c -0.002,0.003 -0.005,0.007 -0.006,0.008 -0.021,0.788 0.094,1.517 0.345,2.183 0.213,0.564 0.55,1.136 1.009,1.714 0.036,0.045 0.448,0.513 1.234,1.401 0.477,0.54 0.815,1.016 1.018,1.426 h 0.161 c -0.063,-0.31 -0.142,-0.602 -0.234,-0.877 -0.105,-0.291 -0.183,-0.52 -0.234,-0.69 v -0.157 c 0.052,0.03 0.104,0.061 0.157,0.093 0.967,0.55 1.763,1.246 2.39,2.091 0.042,0.057 0.082,0.111 0.121,0.166 0.775,1.108 1.19,2.359 1.246,3.758 0.169,-0.157 0.292,-0.316 0.367,-0.477 0.105,-0.226 0.139,-0.483 0.102,-0.776 0.167,0.338 0.424,0.762 0.771,1.268 0.197,0.283 0.503,0.724 0.918,1.317 0.75,1.11 1.178,2.073 1.284,2.892 0.187,-0.267 0.352,-0.545 0.493,-0.831 0.1,0.332 0.149,0.636 0.149,0.909 0,0.177 -0.033,0.357 -0.099,0.541 v 0.005 l 0.008,0.002 c -0.011,0.018 -0.021,0.033 -0.027,0.047 -0.666,1.095 -1.775,2.017 -3.328,2.771 -0.099,0.049 -0.52,0.236 -1.262,0.561 -0.521,0.224 -0.927,0.428 -1.218,0.614 -0.849,0.541 -1.275,1.245 -1.275,2.113 0,0.748 0.468,1.321 1.4,1.719 0.741,0.315 1.605,0.474 2.592,0.474 1.464,0 3.032,-0.23 4.702,-0.688 1.735,-0.475 3.323,-1.131 4.764,-1.969 1.573,-0.914 2.802,-1.948 3.688,-3.104 0.987,-1.293 1.48,-2.66 1.48,-4.102 0,-0.122 -0.025,-0.319 -0.077,-0.594 -0.042,-0.223 -0.157,-0.648 -0.342,-1.275 0.01,0.002 0.021,0.004 0.03,0.009 0.366,0.101 0.751,0.251 1.155,0.451 -0.219,-1.303 -0.57,-2.394 -1.056,-3.274 -0.403,-0.728 -0.99,-1.462 -1.762,-2.202 0.105,0 0.235,0.025 0.392,0.078 0.083,0.028 0.158,0.049 0.226,0.062 -0.232,-0.47 -0.688,-1.01 -1.367,-1.623 -0.211,-0.187 -0.901,-0.756 -2.07,-1.702 -0.893,-0.725 -1.569,-1.338 -2.028,-1.837 -0.647,-0.704 -1.066,-1.378 -1.257,-2.022 0.34,0 0.594,-0.006 0.763,-0.02 0.292,-0.022 0.508,-0.067 0.647,-0.136 -0.308,-0.111 -0.592,-0.275 -0.852,-0.491 -0.779,-0.65 -1.338,-1.773 -1.678,-3.37 -0.146,-0.688 -0.271,-1.573 -0.375,-2.651 -0.111,-1.171 -0.183,-1.89 -0.215,-2.159 -0.063,-0.037 -0.119,-0.067 -0.167,-0.094 h 0.158 c 0.002,0.021 0.005,0.052 0.011,0.094 0.197,0.118 0.454,0.296 0.772,0.532 v -0.157 c -0.336,-0.59 -0.531,-1.008 -0.584,-1.256 -0.028,-0.128 -0.041,-0.517 -0.041,-1.169 0,-0.02 0,-0.037 0,-0.056 0.215,-0.599 0.477,-1.224 0.785,-1.874 0.608,-1.184 1.056,-2.071 1.342,-2.666 0.505,-1.038 0.877,-1.98 1.114,-2.827 0.311,-1.108 0.466,-2.271 0.466,-3.489 0,-1.524 -0.454,-3.242 -1.362,-5.155 -0.244,-0.516 -0.512,-1.025 -0.805,-1.527 0.371,0.434 0.741,0.84 1.112,1.219 0.613,0.623 1.228,1.171 1.845,1.643 0.628,0.876 1.204,1.629 1.726,2.257 1.414,1.696 2.857,2.979 4.327,3.85 1.843,1.093 3.861,1.64 6.056,1.64 0.456,0 1.162,-0.083 2.119,-0.25 1.06,-0.183 2.072,-0.412 3.041,-0.689 0.154,-0.044 0.304,-0.088 0.449,-0.132 2.311,-0.705 3.467,-1.444 3.467,-2.217 0,-0.176 -0.05,-0.333 -0.151,-0.472 -0.149,-0.208 -0.385,-0.313 -0.708,-0.313 -0.138,0 -0.522,0.105 -1.152,0.315 -0.63,0.208 -1.107,0.313 -1.431,0.313 -0.007,0 -0.015,0 -0.025,0 -0.456,-0.003 -0.907,-0.067 -1.354,-0.189 -0.241,-0.324 -0.595,-0.665 -1.063,-1.023 -0.347,-0.271 -0.715,-0.514 -1.103,-0.73 -0.34,-0.188 -0.588,-0.303 -0.744,-0.342 0.208,0 0.494,-0.051 0.859,-0.156 0.366,-0.104 0.654,-0.157 0.863,-0.157 -0.792,-0.12 -1.532,-0.619 -2.219,-1.5 -0.265,-0.336 -0.557,-0.772 -0.877,-1.31 -0.371,-0.64 -0.652,-1.121 -0.844,-1.444 -0.709,-1.219 -1.354,-2.094 -1.935,-2.627 -0.382,-0.347 -0.79,-0.612 -1.221,-0.793 -0.121,-0.082 -0.245,-0.153 -0.372,-0.216 0.176,-0.087 0.366,-0.16 0.568,-0.215 0.238,-0.066 0.466,-0.098 0.683,-0.098 0,-0.052 -0.026,-0.104 -0.077,-0.155 -0.053,-0.054 -0.08,-0.106 -0.08,-0.157 -0.673,-0.281 -1.322,-0.72 -1.948,-1.315 -0.427,-0.404 -0.952,-1.003 -1.577,-1.797 -0.755,-0.962 -1.266,-1.591 -1.533,-1.885 -0.61,-0.676 -1.219,-1.202 -1.827,-1.577 0.208,-0.104 0.364,-0.176 0.469,-0.215 0.174,-0.066 0.328,-0.099 0.464,-0.099 z"
     id="path2147"
     inkscape:connector-curvature="0"
     style="clip-rule:evenodd;fill:#77777f;fill-opacity:0.94117647;fill-rule:evenodd" /></svg>