<?xml version="1.0" encoding="UTF-8" standalone="no"?>
<svg
   xmlns:dc="http://purl.org/dc/elements/1.1/"
   xmlns:cc="http://creativecommons.org/ns#"
   xmlns:rdf="http://www.w3.org/1999/02/22-rdf-syntax-ns#"
   xmlns:svg="http://www.w3.org/2000/svg"
   xmlns="http://www.w3.org/2000/svg"
   xmlns:sodipodi="http://sodipodi.sourceforge.net/DTD/sodipodi-0.dtd"
   xmlns:inkscape="http://www.inkscape.org/namespaces/inkscape"
   version="1.1"
   x="0px"
   y="0px"
   viewBox="0 0 32 32"
   enable-background="new 0 0 32 32"
   xml:space="preserve"
   id="svg893"
   sodipodi:docname="map.svg"
   width="32"
   height="32"
   inkscape:version="0.92.5 (2060ec1f9f, 2020-04-08)"><metadata
     id="metadata899"><rdf:RDF><cc:Work
         rdf:about=""><dc:format>image/svg+xml</dc:format><dc:type
           rdf:resource="http://purl.org/dc/dcmitype/StillImage" /><dc:title /></cc:Work></rdf:RDF></metadata><defs
     id="defs897" /><sodipodi:namedview
     pagecolor="#ffffff"
     bordercolor="#666666"
     borderopacity="1"
     objecttolerance="10"
     gridtolerance="10"
     guidetolerance="10"
     inkscape:pageopacity="0"
     inkscape:pageshadow="2"
     inkscape:window-width="1920"
     inkscape:window-height="1016"
     id="namedview895"
     showgrid="false"
     fit-margin-top="0"
     fit-margin-left="0"
     fit-margin-right="0"
     fit-margin-bottom="0"
     inkscape:zoom="26"
     inkscape:cx="9.6179421"
     inkscape:cy="16"
     inkscape:window-x="0"
     inkscape:window-y="27"
     inkscape:window-maximized="1"
     inkscape:current-layer="svg893"
     inkscape:pagecheckerboard="false" /><g
     display="none"
     id="g817"
     style="display:none"><rect
       x="-210.73"
       y="-7.3330002"
       display="inline"
       width="412.397"
       height="207"
       id="rect815"
       style="display:inline;fill:#000000" /></g><g
     display="none"
     id="g845"
     style="display:none"><g
       display="inline"
       id="g837"
       style="display:inline"><path
         stroke-miterlimit="10"
         d="m 21.458,21.582 -2.075,-1.455 -2.075,1.455 0.792,-2.353 -2.088,-1.463 h 2.58 l 0.79,-2.344 0.79,2.344 h 2.581 l -2.088,1.463 z"
         id="path819"
         inkscape:connector-curvature="0"
         style="fill:none;stroke:#000000;stroke-miterlimit:10" /><line
         stroke-miterlimit="10"
         x1="19.382999"
         y1="22.775999"
         x2="19.382999"
         y2="25.656"
         id="line821"
         style="fill:none;stroke:#000000;stroke-miterlimit:10" /><line
         stroke-miterlimit="10"
         x1="19.382999"
         y1="10.31"
         x2="19.382999"
         y2="13.113"
         id="line823"
         style="fill:none;stroke:#000000;stroke-miterlimit:10" /><line
         stroke-miterlimit="10"
         x1="12.668"
         y1="18.819"
         x2="12.668"
         y2="21.698999"
         id="line825"
         style="fill:none;stroke:#000000;stroke-miterlimit:10" /><line
         stroke-miterlimit="10"
         x1="12.668"
         y1="14.855"
         x2="12.668"
         y2="17.083"
         id="line827"
         style="fill:none;stroke:#000000;stroke-miterlimit:10" /><line
         stroke-miterlimit="10"
         x1="12.668"
         y1="10.892"
         x2="12.668"
         y2="13.12"
         id="line829"
         style="fill:none;stroke:#000000;stroke-miterlimit:10" /><line
         stroke-miterlimit="10"
         x1="12.668"
         y1="6.3530002"
         x2="12.668"
         y2="9.1560001"
         id="line831"
         style="fill:none;stroke:#000000;stroke-miterlimit:10" /><g
         id="g835"><path
           d="m 12.59,7.152 6.202,3.998 0.543,0.35 0.542,-0.35 L 25,7.837 v 13.595 l -5.657,3.396 -6.148,-3.832 -0.529,-0.33 -0.529,0.33 L 7,24.198 V 10 L 12.59,7.152 M 26,6 19.333,10.31 12.648,6 6,9.387 V 26 L 12.667,21.844 19.333,26 26,21.998 Z"
           id="path833"
           inkscape:connector-curvature="0" /></g></g><g
       display="inline"
       id="g843"
       style="display:inline"><g
         id="g841"><path
           d="M 27.488,1 C 29.428,1 31,2.572 31,4.512 V 27.489 C 31,29.428 29.428,31 27.488,31 H 4.512 C 2.572,31 1,29.428 1,27.488 V 4.512 C 1,2.572 2.572,1 4.512,1 h 22.976 m 0,-1 H 4.512 C 2.024,0 0,2.024 0,4.512 V 27.489 C 0,29.976 2.024,32 4.512,32 H 27.489 C 29.976,32 32,29.976 32,27.488 V 4.512 C 32,2.024 29.976,0 27.488,0 Z"
           id="path839"
           inkscape:connector-curvature="0" /></g></g></g><g
     display="none"
     id="g855"
     style="display:none"><g
       display="inline"
       id="g853"
       style="display:inline"><polygon
         points="19.392,19.396 21.897,21.152 20.94,18.311 23.461,16.545 20.345,16.545 19.391,13.715 18.437,16.545 15.322,16.545 17.843,18.311 16.887,21.152 "
         id="polygon847" /><path
         d="M 12.648,6 6,9.387 V 26 L 12.667,21.844 19.333,26 26,21.998 V 6 l -6.667,4.31 z M 20.419,11.989 24,9.674 v 11.191 l -4.647,2.79 -5.628,-3.509 -1.058,-0.66 -1.058,0.66 L 8,22.396 V 10.613 l 4.531,-2.308 5.719,3.687 1.085,0.7 z"
         id="path849"
         inkscape:connector-curvature="0" /><path
         d="M 27.488,0 H 4.512 C 2.024,0 0,2.024 0,4.512 V 27.489 C 0,29.976 2.024,32 4.512,32 H 27.489 C 29.976,32 32,29.976 32,27.488 V 4.512 C 32,2.024 29.976,0 27.488,0 Z M 30,27.488 C 30,28.873 28.873,30 27.488,30 H 4.512 C 3.127,30 2,28.873 2,27.488 V 4.512 C 2,3.127 3.127,2 4.512,2 H 27.489 C 28.873,2 30,3.127 30,4.512 Z"
         id="path851"
         inkscape:connector-curvature="0" /></g></g><g
     id="g863"
     style="fill:#164450;fill-opacity:1"><g
       id="g861"
       style="fill:#164450;fill-opacity:1"><path
         d="M 18.883,11.209 18.792,11.15 13.168,7.525 v 1.631 h -1 V 7.367 L 7,10 v 14.198 l 5.138,-3.203 0.03,-0.019 v -2.158 h 1 v 2.16 l 0.028,0.017 5.687,3.545 v -1.765 h 1 v 1.728 L 25,21.432 V 7.837 l -5.117,3.308 v 1.968 h -1 z m -5.715,5.874 h -1 v -2.228 h 1 z m 0,-3.963 h -1 v -2.228 h 1 z m 6.214,2.03 0.82,2.43 h 2.714 l -2.196,1.539 0.827,2.455 -2.164,-1.518 -2.164,1.517 0.826,-2.454 -2.196,-1.539 h 2.714 z"
         id="path857"
         inkscape:connector-curvature="0"
         style="fill:#164450;fill-opacity:1" /><path
         d="M 27.488,0 H 4.512 C 2.024,0 0,2.024 0,4.512 V 27.489 C 0,29.976 2.024,32 4.512,32 H 27.489 C 29.976,32 32,29.976 32,27.488 V 4.512 C 32,2.024 29.976,0 27.488,0 Z M 26,21.998 19.333,26 12.666,21.844 6,26 V 9.387 L 12.648,6 l 6.685,4.31 v 0 L 26,6 Z"
         id="path859"
         inkscape:connector-curvature="0"
         style="fill:#164450;fill-opacity:1" /></g></g><g
     display="none"
     id="g887"
     style="display:none"><path
       display="inline"
       stroke-miterlimit="10"
       d="m 21.458,21.582 -2.075,-1.455 -2.075,1.455 0.792,-2.353 -2.088,-1.463 h 2.58 l 0.79,-2.344 0.79,2.344 h 2.581 l -2.088,1.463 z"
       id="path865"
       inkscape:connector-curvature="0"
       style="display:inline;fill:none;stroke:#000000;stroke-width:0.5;stroke-miterlimit:10" /><line
       display="inline"
       stroke-miterlimit="10"
       x1="19.382999"
       y1="22.775999"
       x2="19.382999"
       y2="25.656"
       id="line867"
       style="display:inline;fill:none;stroke:#000000;stroke-width:0.5;stroke-miterlimit:10" /><line
       display="inline"
       stroke-miterlimit="10"
       x1="19.382999"
       y1="10.31"
       x2="19.382999"
       y2="13.113"
       id="line869"
       style="display:inline;fill:none;stroke:#000000;stroke-width:0.5;stroke-miterlimit:10" /><line
       display="inline"
       stroke-miterlimit="10"
       x1="12.668"
       y1="18.819"
       x2="12.668"
       y2="21.698999"
       id="line871"
       style="display:inline;fill:none;stroke:#000000;stroke-width:0.5;stroke-miterlimit:10" /><line
       display="inline"
       stroke-miterlimit="10"
       x1="12.668"
       y1="14.855"
       x2="12.668"
       y2="17.083"
       id="line873"
       style="display:inline;fill:none;stroke:#000000;stroke-width:0.5;stroke-miterlimit:10" /><line
       display="inline"
       stroke-miterlimit="10"
       x1="12.668"
       y1="10.892"
       x2="12.668"
       y2="13.12"
       id="line875"
       style="display:inline;fill:none;stroke:#000000;stroke-width:0.5;stroke-miterlimit:10" /><line
       display="inline"
       stroke-miterlimit="10"
       x1="12.668"
       y1="6.3530002"
       x2="12.668"
       y2="9.1560001"
       id="line877"
       style="display:inline;fill:none;stroke:#000000;stroke-width:0.5;stroke-miterlimit:10" /><g
       display="inline"
       id="g881"
       style="display:inline"><path
         d="m 12.619,6.576 6.443,4.154 0.271,0.175 L 19.604,10.73 25.5,6.919 V 21.715 L 19.338,25.414 12.931,21.42 12.666,21.255 12.401,21.42 6.5,25.099 V 9.693 L 12.619,6.576 M 26,6 19.333,10.31 12.648,6 6,9.387 V 26 L 12.667,21.844 19.333,26 26,21.998 Z"
         id="path879"
         inkscape:connector-curvature="0" /></g><g
       display="inline"
       id="g885"
       style="display:inline"><path
         d="m 27.869,0.483 c 2.005,0 3.631,1.626 3.631,3.631 v 23.772 c 0,2.005 -1.626,3.631 -3.631,3.631 H 4.131 C 2.126,31.517 0.5,29.891 0.5,27.886 V 4.114 C 0.5,2.109 2.126,0.483 4.131,0.483 h 23.738 m 0,-0.5 H 4.131 C 1.853,-0.017 0,1.836 0,4.114 v 23.772 c 0,2.278 1.853,4.131 4.131,4.131 H 27.87 c 2.278,0 4.131,-1.853 4.131,-4.131 V 4.114 C 32,1.836 30.147,-0.017 27.869,-0.017 Z"
         id="path883"
         inkscape:connector-curvature="0" /></g></g><path
     style="fill:#ffffff;fill-opacity:1;stroke-width:0.03846154"
     d="M 12.194865,11.996154 V 10.9 h 0.480769 0.48077 v 1.096154 1.096154 h -0.48077 -0.480769 z"
     id="path936"
     inkscape:connector-curvature="0" /><path
     style="fill:#ffffff;fill-opacity:1;stroke-width:0.03846154"
     d="m 12.194865,15.957692 v -1.096154 h 0.480769 0.48077 v 1.096154 1.096154 h -0.48077 -0.480769 z"
     id="path938"
     inkscape:connector-curvature="0" /><path
     style="fill:#ffffff;fill-opacity:1;stroke-width:0.03846154"
     d="m 6.0120852,17.687657 0.0097,-8.2905667 3.2884616,-1.6769419 C 11.118904,6.7978303 12.616645,6.0427157 12.638564,6.042116 c 0.02192,-5.997e-4 1.51038,0.9473501 3.307692,2.1065552 1.797312,1.159205 3.294651,2.1246588 3.327421,2.1454518 0.04635,0.02941 0.776644,-0.4256426 3.288462,-2.0490736 1.775884,-1.1477843 3.267822,-2.1123437 3.315418,-2.1434654 l 0.08654,-0.056585 -3.47e-4,7.975578 -3.47e-4,7.975577 -3.295426,1.980769 c -1.812485,1.089423 -3.31436,1.978989 -3.3375,1.976812 -0.02314,-0.0022 -1.531894,-0.932703 -3.352785,-2.067836 L 12.66698,21.822021 9.575154,23.749153 c -1.7005045,1.059923 -3.2000388,1.995069 -3.3322986,2.078102 l -0.2404722,0.15097 z m 13.3565658,5.096958 h 0.48006 v 0.86859 c 0,0.558874 0.01364,0.864018 0.03825,0.855769 0.02104,-0.0071 1.180086,-0.696474 2.57566,-1.532051 l 2.537406,-1.519231 0.0013,-6.819219 c 0.0011,-5.7784667 -0.0068,-6.8145242 -0.05167,-6.7884611 -0.02911,0.016916 -1.188727,0.7652638 -2.576923,1.6629938 l -2.52399,1.6322363 v 0.973533 0.973533 h -0.480769 -0.480769 l -3.9e-5,-0.951923 -3.8e-5,-0.951923 -2.832797,-1.8269235 C 14.496265,8.3567308 13.206861,7.5288462 13.188957,7.5217949 c -0.01791,-0.00705 -0.03255,0.3520833 -0.03255,0.7980769 v 0.8108974 h -0.48077 -0.480769 V 8.2461538 c 0,-0.4865384 -0.01194,-0.8846153 -0.02654,-0.8846153 -0.03513,0 -5.0940988,2.575458 -5.1561532,2.6249334 -0.038148,0.030415 -0.048077,1.4984051 -0.048077,7.1082751 0,3.888469 0.014077,7.078644 0.031282,7.089277 0.017205,0.01063 1.1898013,-0.702705 2.6057692,-1.585196 l 2.574487,-1.604529 0.01021,-1.085611 0.01021,-1.085611 h 0.48017 0.480171 l 7.38e-4,1.086538 7.39e-4,1.086539 2.855028,1.777164 2.855029,1.777164 0.01032,-0.882933 0.01033,-0.882934 h 0.48006 z"
     id="path940"
     inkscape:connector-curvature="0" /><path
     style="fill:#ffffff;fill-opacity:1;stroke-width:0.03846154"
     d="m 17.271788,21.488758 c 0,-0.01302 0.175186,-0.539576 0.389302,-1.170115 0.214115,-0.63054 0.380532,-1.169288 0.369813,-1.19722 -0.01072,-0.02793 -0.489293,-0.379082 -1.0635,-0.780334 l -1.044013,-0.729551 1.323792,-0.01011 1.323793,-0.01011 0.216445,-0.624507 c 0.119044,-0.343478 0.300713,-0.875468 0.403707,-1.182199 0.106427,-0.316952 0.197335,-0.532788 0.210597,-0.5 0.01283,0.03173 0.194592,0.559616 0.403906,1.173077 l 0.38057,1.115385 1.325696,0.01923 1.325695,0.01923 -1.004055,0.704692 c -0.55223,0.387581 -1.033657,0.726486 -1.069836,0.753123 -0.06053,0.04456 -0.03357,0.143087 0.337464,1.233486 0.221784,0.65178 0.3985,1.189472 0.392703,1.194871 -0.0058,0.0054 -0.477065,-0.317262 -1.047263,-0.717024 -0.570197,-0.399762 -1.04954,-0.72684 -1.065205,-0.72684 -0.01567,0 -0.496737,0.328183 -1.069047,0.729296 -0.57231,0.401113 -1.040564,0.71864 -1.040564,0.705616 z"
     id="path942"
     inkscape:connector-curvature="0" /></svg>