<?xml version="1.0" encoding="UTF-8" standalone="no"?>
<svg
   xmlns:dc="http://purl.org/dc/elements/1.1/"
   xmlns:cc="http://creativecommons.org/ns#"
   xmlns:rdf="http://www.w3.org/1999/02/22-rdf-syntax-ns#"
   xmlns:svg="http://www.w3.org/2000/svg"
   xmlns="http://www.w3.org/2000/svg"
   xmlns:sodipodi="http://sodipodi.sourceforge.net/DTD/sodipodi-0.dtd"
   xmlns:inkscape="http://www.inkscape.org/namespaces/inkscape"
   version="1.1"
   x="0px"
   y="0px"
   viewBox="0 0 500 500"
   xml:space="preserve"
   id="svg5987"
   sodipodi:docname="monument.svg"
   width="500"
   height="500"
   inkscape:version="0.92.5 (2060ec1f9f, 2020-04-08)"><metadata
     id="metadata5993"><rdf:RDF><cc:Work
         rdf:about=""><dc:format>image/svg+xml</dc:format><dc:type
           rdf:resource="http://purl.org/dc/dcmitype/StillImage" /><dc:title /></cc:Work></rdf:RDF></metadata><defs
     id="defs5991" /><sodipodi:namedview
     pagecolor="#ffffff"
     bordercolor="#666666"
     borderopacity="1"
     objecttolerance="10"
     gridtolerance="10"
     guidetolerance="10"
     inkscape:pageopacity="0"
     inkscape:pageshadow="2"
     inkscape:window-width="1920"
     inkscape:window-height="1016"
     id="namedview5989"
     showgrid="false"
     fit-margin-top="0"
     fit-margin-left="0"
     fit-margin-right="0"
     fit-margin-bottom="0"
     inkscape:zoom="1.39"
     inkscape:cx="121.22302"
     inkscape:cy="250"
     inkscape:window-x="0"
     inkscape:window-y="27"
     inkscape:window-maximized="1"
     inkscape:current-layer="svg5987" /><style
     type="text/css"
     id="style5851">
	.st0{display:none;}
	.st1{display:inline;fill:none;stroke:#000000;stroke-width:0.1;stroke-miterlimit:10;}
</style><g
     class="st0"
     id="g5979"
     style="display:none"
     transform="translate(-6,-6)"><rect
       class="st1"
       width="512"
       height="512"
       id="rect5853"
       x="0"
       y="0"
       style="display:inline;fill:none;stroke:#000000;stroke-width:0.1;stroke-miterlimit:10" /><line
       class="st1"
       x1="0"
       y1="496"
       x2="512"
       y2="496"
       id="line5855"
       style="display:inline;fill:none;stroke:#000000;stroke-width:0.1;stroke-miterlimit:10" /><line
       class="st1"
       x1="0"
       y1="480"
       x2="512"
       y2="480"
       id="line5857"
       style="display:inline;fill:none;stroke:#000000;stroke-width:0.1;stroke-miterlimit:10" /><line
       class="st1"
       x1="0"
       y1="464"
       x2="512"
       y2="464"
       id="line5859"
       style="display:inline;fill:none;stroke:#000000;stroke-width:0.1;stroke-miterlimit:10" /><line
       class="st1"
       x1="0"
       y1="448"
       x2="512"
       y2="448"
       id="line5861"
       style="display:inline;fill:none;stroke:#000000;stroke-width:0.1;stroke-miterlimit:10" /><line
       class="st1"
       x1="0"
       y1="432"
       x2="512"
       y2="432"
       id="line5863"
       style="display:inline;fill:none;stroke:#000000;stroke-width:0.1;stroke-miterlimit:10" /><line
       class="st1"
       x1="0"
       y1="416"
       x2="512"
       y2="416"
       id="line5865"
       style="display:inline;fill:none;stroke:#000000;stroke-width:0.1;stroke-miterlimit:10" /><line
       class="st1"
       x1="0"
       y1="400"
       x2="512"
       y2="400"
       id="line5867"
       style="display:inline;fill:none;stroke:#000000;stroke-width:0.1;stroke-miterlimit:10" /><line
       class="st1"
       x1="0"
       y1="384"
       x2="512"
       y2="384"
       id="line5869"
       style="display:inline;fill:none;stroke:#000000;stroke-width:0.1;stroke-miterlimit:10" /><line
       class="st1"
       x1="0"
       y1="368"
       x2="512"
       y2="368"
       id="line5871"
       style="display:inline;fill:none;stroke:#000000;stroke-width:0.1;stroke-miterlimit:10" /><line
       class="st1"
       x1="0"
       y1="352"
       x2="512"
       y2="352"
       id="line5873"
       style="display:inline;fill:none;stroke:#000000;stroke-width:0.1;stroke-miterlimit:10" /><line
       class="st1"
       x1="0"
       y1="336"
       x2="512"
       y2="336"
       id="line5875"
       style="display:inline;fill:none;stroke:#000000;stroke-width:0.1;stroke-miterlimit:10" /><line
       class="st1"
       x1="0"
       y1="320"
       x2="512"
       y2="320"
       id="line5877"
       style="display:inline;fill:none;stroke:#000000;stroke-width:0.1;stroke-miterlimit:10" /><line
       class="st1"
       x1="0"
       y1="304"
       x2="512"
       y2="304"
       id="line5879"
       style="display:inline;fill:none;stroke:#000000;stroke-width:0.1;stroke-miterlimit:10" /><line
       class="st1"
       x1="0"
       y1="288"
       x2="512"
       y2="288"
       id="line5881"
       style="display:inline;fill:none;stroke:#000000;stroke-width:0.1;stroke-miterlimit:10" /><line
       class="st1"
       x1="0"
       y1="272"
       x2="512"
       y2="272"
       id="line5883"
       style="display:inline;fill:none;stroke:#000000;stroke-width:0.1;stroke-miterlimit:10" /><line
       class="st1"
       x1="0"
       y1="256"
       x2="512"
       y2="256"
       id="line5885"
       style="display:inline;fill:none;stroke:#000000;stroke-width:0.1;stroke-miterlimit:10" /><line
       class="st1"
       x1="0"
       y1="240"
       x2="512"
       y2="240"
       id="line5887"
       style="display:inline;fill:none;stroke:#000000;stroke-width:0.1;stroke-miterlimit:10" /><line
       class="st1"
       x1="0"
       y1="224"
       x2="512"
       y2="224"
       id="line5889"
       style="display:inline;fill:none;stroke:#000000;stroke-width:0.1;stroke-miterlimit:10" /><line
       class="st1"
       x1="0"
       y1="208"
       x2="512"
       y2="208"
       id="line5891"
       style="display:inline;fill:none;stroke:#000000;stroke-width:0.1;stroke-miterlimit:10" /><line
       class="st1"
       x1="0"
       y1="192"
       x2="512"
       y2="192"
       id="line5893"
       style="display:inline;fill:none;stroke:#000000;stroke-width:0.1;stroke-miterlimit:10" /><line
       class="st1"
       x1="0"
       y1="176"
       x2="512"
       y2="176"
       id="line5895"
       style="display:inline;fill:none;stroke:#000000;stroke-width:0.1;stroke-miterlimit:10" /><line
       class="st1"
       x1="0"
       y1="160"
       x2="512"
       y2="160"
       id="line5897"
       style="display:inline;fill:none;stroke:#000000;stroke-width:0.1;stroke-miterlimit:10" /><line
       class="st1"
       x1="0"
       y1="144"
       x2="512"
       y2="144"
       id="line5899"
       style="display:inline;fill:none;stroke:#000000;stroke-width:0.1;stroke-miterlimit:10" /><line
       class="st1"
       x1="0"
       y1="128"
       x2="512"
       y2="128"
       id="line5901"
       style="display:inline;fill:none;stroke:#000000;stroke-width:0.1;stroke-miterlimit:10" /><line
       class="st1"
       x1="0"
       y1="112"
       x2="512"
       y2="112"
       id="line5903"
       style="display:inline;fill:none;stroke:#000000;stroke-width:0.1;stroke-miterlimit:10" /><line
       class="st1"
       x1="0"
       y1="96"
       x2="512"
       y2="96"
       id="line5905"
       style="display:inline;fill:none;stroke:#000000;stroke-width:0.1;stroke-miterlimit:10" /><line
       class="st1"
       x1="0"
       y1="80"
       x2="512"
       y2="80"
       id="line5907"
       style="display:inline;fill:none;stroke:#000000;stroke-width:0.1;stroke-miterlimit:10" /><line
       class="st1"
       x1="0"
       y1="64"
       x2="512"
       y2="64"
       id="line5909"
       style="display:inline;fill:none;stroke:#000000;stroke-width:0.1;stroke-miterlimit:10" /><line
       class="st1"
       x1="0"
       y1="48"
       x2="512"
       y2="48"
       id="line5911"
       style="display:inline;fill:none;stroke:#000000;stroke-width:0.1;stroke-miterlimit:10" /><line
       class="st1"
       x1="0"
       y1="32"
       x2="512"
       y2="32"
       id="line5913"
       style="display:inline;fill:none;stroke:#000000;stroke-width:0.1;stroke-miterlimit:10" /><line
       class="st1"
       x1="0"
       y1="16"
       x2="512"
       y2="16"
       id="line5915"
       style="display:inline;fill:none;stroke:#000000;stroke-width:0.1;stroke-miterlimit:10" /><line
       class="st1"
       x1="496"
       y1="0"
       x2="496"
       y2="512"
       id="line5917"
       style="display:inline;fill:none;stroke:#000000;stroke-width:0.1;stroke-miterlimit:10" /><line
       class="st1"
       x1="480"
       y1="0"
       x2="480"
       y2="512"
       id="line5919"
       style="display:inline;fill:none;stroke:#000000;stroke-width:0.1;stroke-miterlimit:10" /><line
       class="st1"
       x1="464"
       y1="0"
       x2="464"
       y2="512"
       id="line5921"
       style="display:inline;fill:none;stroke:#000000;stroke-width:0.1;stroke-miterlimit:10" /><line
       class="st1"
       x1="448"
       y1="0"
       x2="448"
       y2="512"
       id="line5923"
       style="display:inline;fill:none;stroke:#000000;stroke-width:0.1;stroke-miterlimit:10" /><line
       class="st1"
       x1="432"
       y1="0"
       x2="432"
       y2="512"
       id="line5925"
       style="display:inline;fill:none;stroke:#000000;stroke-width:0.1;stroke-miterlimit:10" /><line
       class="st1"
       x1="416"
       y1="0"
       x2="416"
       y2="512"
       id="line5927"
       style="display:inline;fill:none;stroke:#000000;stroke-width:0.1;stroke-miterlimit:10" /><line
       class="st1"
       x1="400"
       y1="0"
       x2="400"
       y2="512"
       id="line5929"
       style="display:inline;fill:none;stroke:#000000;stroke-width:0.1;stroke-miterlimit:10" /><line
       class="st1"
       x1="384"
       y1="0"
       x2="384"
       y2="512"
       id="line5931"
       style="display:inline;fill:none;stroke:#000000;stroke-width:0.1;stroke-miterlimit:10" /><line
       class="st1"
       x1="368"
       y1="0"
       x2="368"
       y2="512"
       id="line5933"
       style="display:inline;fill:none;stroke:#000000;stroke-width:0.1;stroke-miterlimit:10" /><line
       class="st1"
       x1="352"
       y1="0"
       x2="352"
       y2="512"
       id="line5935"
       style="display:inline;fill:none;stroke:#000000;stroke-width:0.1;stroke-miterlimit:10" /><line
       class="st1"
       x1="336"
       y1="0"
       x2="336"
       y2="512"
       id="line5937"
       style="display:inline;fill:none;stroke:#000000;stroke-width:0.1;stroke-miterlimit:10" /><line
       class="st1"
       x1="320"
       y1="0"
       x2="320"
       y2="512"
       id="line5939"
       style="display:inline;fill:none;stroke:#000000;stroke-width:0.1;stroke-miterlimit:10" /><line
       class="st1"
       x1="304"
       y1="0"
       x2="304"
       y2="512"
       id="line5941"
       style="display:inline;fill:none;stroke:#000000;stroke-width:0.1;stroke-miterlimit:10" /><line
       class="st1"
       x1="288"
       y1="0"
       x2="288"
       y2="512"
       id="line5943"
       style="display:inline;fill:none;stroke:#000000;stroke-width:0.1;stroke-miterlimit:10" /><line
       class="st1"
       x1="272"
       y1="0"
       x2="272"
       y2="512"
       id="line5945"
       style="display:inline;fill:none;stroke:#000000;stroke-width:0.1;stroke-miterlimit:10" /><line
       class="st1"
       x1="256"
       y1="0"
       x2="256"
       y2="512"
       id="line5947"
       style="display:inline;fill:none;stroke:#000000;stroke-width:0.1;stroke-miterlimit:10" /><line
       class="st1"
       x1="240"
       y1="0"
       x2="240"
       y2="512"
       id="line5949"
       style="display:inline;fill:none;stroke:#000000;stroke-width:0.1;stroke-miterlimit:10" /><line
       class="st1"
       x1="224"
       y1="0"
       x2="224"
       y2="512"
       id="line5951"
       style="display:inline;fill:none;stroke:#000000;stroke-width:0.1;stroke-miterlimit:10" /><line
       class="st1"
       x1="208"
       y1="0"
       x2="208"
       y2="512"
       id="line5953"
       style="display:inline;fill:none;stroke:#000000;stroke-width:0.1;stroke-miterlimit:10" /><line
       class="st1"
       x1="192"
       y1="0"
       x2="192"
       y2="512"
       id="line5955"
       style="display:inline;fill:none;stroke:#000000;stroke-width:0.1;stroke-miterlimit:10" /><line
       class="st1"
       x1="176"
       y1="0"
       x2="176"
       y2="512"
       id="line5957"
       style="display:inline;fill:none;stroke:#000000;stroke-width:0.1;stroke-miterlimit:10" /><line
       class="st1"
       x1="160"
       y1="0"
       x2="160"
       y2="512"
       id="line5959"
       style="display:inline;fill:none;stroke:#000000;stroke-width:0.1;stroke-miterlimit:10" /><line
       class="st1"
       x1="144"
       y1="0"
       x2="144"
       y2="512"
       id="line5961"
       style="display:inline;fill:none;stroke:#000000;stroke-width:0.1;stroke-miterlimit:10" /><line
       class="st1"
       x1="128"
       y1="0"
       x2="128"
       y2="512"
       id="line5963"
       style="display:inline;fill:none;stroke:#000000;stroke-width:0.1;stroke-miterlimit:10" /><line
       class="st1"
       x1="112"
       y1="0"
       x2="112"
       y2="512"
       id="line5965"
       style="display:inline;fill:none;stroke:#000000;stroke-width:0.1;stroke-miterlimit:10" /><line
       class="st1"
       x1="96"
       y1="0"
       x2="96"
       y2="512"
       id="line5967"
       style="display:inline;fill:none;stroke:#000000;stroke-width:0.1;stroke-miterlimit:10" /><line
       class="st1"
       x1="80"
       y1="0"
       x2="80"
       y2="512"
       id="line5969"
       style="display:inline;fill:none;stroke:#000000;stroke-width:0.1;stroke-miterlimit:10" /><line
       class="st1"
       x1="64"
       y1="0"
       x2="64"
       y2="512"
       id="line5971"
       style="display:inline;fill:none;stroke:#000000;stroke-width:0.1;stroke-miterlimit:10" /><line
       class="st1"
       x1="48"
       y1="0"
       x2="48"
       y2="512"
       id="line5973"
       style="display:inline;fill:none;stroke:#000000;stroke-width:0.1;stroke-miterlimit:10" /><line
       class="st1"
       x1="32"
       y1="0"
       x2="32"
       y2="512"
       id="line5975"
       style="display:inline;fill:none;stroke:#000000;stroke-width:0.1;stroke-miterlimit:10" /><line
       class="st1"
       x1="16"
       y1="0"
       x2="16"
       y2="512"
       id="line5977"
       style="display:inline;fill:none;stroke:#000000;stroke-width:0.1;stroke-miterlimit:10" /></g><path
     d="M 250,0 C 111.9,0 0,111.9 0,250 0,388.1 111.9,500 250,500 388.1,500 500,388.1 500,250 500,111.9 388.1,0 250,0 Z m 41.8,398.1 c 0,1 -1.7,1.9 -3.8,1.9 H 135.5 c -2.1,0 -3.8,-0.9 -3.8,-1.9 v -14.5 c 0,-1 1.7,-1.9 3.8,-1.9 h 11.4 c 2.1,0 3.8,-0.9 3.8,-1.9 v -11 c 0,-1 1.7,-1.9 3.8,-1.9 h 9.9 c 2.1,0 3.8,-0.9 3.8,-1.9 v -9.3 c 0,-1 1.7,-1.9 3.8,-1.9 h 30.8 v -246 H 219 v 246 h 32.2 c 2.1,0 3.8,0.9 3.8,1.9 v 9.3 c 0,1 1.7,1.9 3.8,1.9 h 9.9 c 2.1,0 3.8,0.9 3.8,1.9 v 11 c 0,1 1.6,1.9 4.1,1.9 H 288 c 2.1,0 3.8,0.9 3.8,1.9 z m 77,-200.8 c -63.6,-32.4 -79.2,32.4 -142.7,0 0,-33.7 0,-54.2 0,-88 63.4,32.5 79.1,-32.3 142.7,0 0,33.7 0,54.2 0,88 z"
     id="path5981"
     inkscape:connector-curvature="0"
     style="fill:#aa0000" /><path
     style="fill:#ffffff;fill-opacity:1;stroke-width:0.71942449"
     d="m 251.79856,205.66056 c -5.49152,-0.84651 -14.73212,-3.70105 -20.81329,-6.42948 l -4.72628,-2.12054 V 153.4783 c 0,-34.63283 0.18548,-43.55232 0.89928,-43.24476 9.36434,4.0349 12.58595,5.20368 18.42929,6.68604 5.07748,1.28807 8.95144,1.7691 14.48948,1.79917 12.35421,0.0671 18.35131,-1.40849 38.65322,-9.51045 18.70324,-7.46397 21.98688,-8.21142 35.80211,-8.14959 10.32644,0.0462 12.15458,0.24832 17.76774,1.96425 3.44133,1.05201 8.54025,2.93368 11.33094,4.1815 l 5.07398,2.26876 v 43.80069 43.80069 l -3.41726,-1.72148 c -10.77656,-5.42879 -22.78774,-8.022 -34.35252,-7.4167 -9.997,0.52323 -17.14738,2.45393 -33.86137,9.143 -7.09567,2.83975 -15.97676,5.95393 -19.73575,6.9204 -7.70314,1.98054 -18.78866,2.70139 -25.53957,1.66074 z"
     id="path992"
     inkscape:connector-curvature="0" /><path
     style="fill:#ffffff;fill-opacity:1;stroke-width:0.71942449"
     d="m 133.27338,399.15101 c -1.06947,-0.62291 -1.25899,-1.84342 -1.25899,-8.10762 0,-4.77635 0.30414,-7.67847 0.86331,-8.23763 0.5608,-0.56081 3.52284,-0.86718 8.45323,-0.87433 4.17446,-0.006 7.98098,-0.25955 8.45893,-0.56331 0.54504,-0.34641 0.94733,-2.95714 1.07913,-7.00337 l 0.21015,-6.45108 7.66263,-0.39241 c 4.7769,-0.24463 8.09585,-0.75194 8.81295,-1.34708 0.84904,-0.70464 1.15031,-2.24392 1.15031,-5.87724 0,-4.13051 0.22391,-5.04241 1.39156,-5.66731 0.83863,-0.44882 7.69919,-0.74474 17.26618,-0.74474 h 15.87464 V 230.86331 107.84173 h 7.55396 7.55395 v 123.02158 123.02158 l 16.36691,0.01 c 9.0018,0.006 17.09532,0.20503 17.98561,0.44362 1.47419,0.39507 1.61871,0.86363 1.61871,5.24835 0,7.12685 0.39584,7.4469 9.80501,7.9275 l 7.82088,0.39952 0.21129,6.07925 c 0.1162,3.34359 0.56051,6.50007 0.98736,7.01439 0.54609,0.65799 3.00276,0.93514 8.28926,0.93514 10.4776,0 10.29627,-0.15914 10.29627,9.03592 0,7.43865 -0.0263,7.55647 -1.8454,8.24807 -2.58811,0.984 -154.91488,0.91062 -156.60784,-0.0754 z"
     id="path994"
     inkscape:connector-curvature="0" /></svg>