<?xml version="1.0" encoding="UTF-8" standalone="no"?>
<svg
   xmlns:dc="http://purl.org/dc/elements/1.1/"
   xmlns:cc="http://creativecommons.org/ns#"
   xmlns:rdf="http://www.w3.org/1999/02/22-rdf-syntax-ns#"
   xmlns:svg="http://www.w3.org/2000/svg"
   xmlns="http://www.w3.org/2000/svg"
   xmlns:sodipodi="http://sodipodi.sourceforge.net/DTD/sodipodi-0.dtd"
   xmlns:inkscape="http://www.inkscape.org/namespaces/inkscape"
   version="1.1"
   x="0px"
   y="0px"
   viewBox="0 0 90 90"
   enable-background="new 0 0 100 100"
   xml:space="preserve"
   id="svg1541"
   sodipodi:docname="restroom.svg"
   width="90"
   height="90"
   inkscape:version="0.92.5 (2060ec1f9f, 2020-04-08)"><metadata
     id="metadata1547"><rdf:RDF><cc:Work
         rdf:about=""><dc:format>image/svg+xml</dc:format><dc:type
           rdf:resource="http://purl.org/dc/dcmitype/StillImage" /><dc:title></dc:title></cc:Work></rdf:RDF></metadata><defs
     id="defs1545" /><sodipodi:namedview
     pagecolor="#ffffff"
     bordercolor="#666666"
     borderopacity="1"
     objecttolerance="10"
     gridtolerance="10"
     guidetolerance="10"
     inkscape:pageopacity="0"
     inkscape:pageshadow="2"
     inkscape:window-width="2560"
     inkscape:window-height="1016"
     id="namedview1543"
     showgrid="false"
     fit-margin-top="0"
     fit-margin-left="0"
     fit-margin-right="0"
     fit-margin-bottom="0"
     inkscape:zoom="6.3222222"
     inkscape:cx="44.841828"
     inkscape:cy="45"
     inkscape:window-x="0"
     inkscape:window-y="27"
     inkscape:window-maximized="1"
     inkscape:current-layer="layer2"
     inkscape:pagecheckerboard="false" /><g
     inkscape:groupmode="layer"
     id="layer1"
     inkscape:label="background"
     style="display:inline"><rect
       style="fill:#ffffff;fill-opacity:1"
       id="rect849"
       width="76.080849"
       height="69.595787"
       x="7.7504392"
       y="9.4903336" /></g><g
     inkscape:groupmode="layer"
     id="layer2"
     inkscape:label="Foreground"
     style="display:inline"><path
       d="m 76.5,0 h -63 C 6.044,0 0,6.044 0,13.5 v 63 C 0,83.955 6.044,90 13.5,90 h 63 C 83.955,90 90,83.955 90,76.5 v -63 C 90,6.044 83.955,0 76.5,0 Z m -9.219,14.327 c 2.96,0 5.361,2.402 5.361,5.364 0,2.963 -2.401,5.363 -5.361,5.363 -2.965,0 -5.365,-2.4 -5.365,-5.363 0,-2.962 2.4,-5.364 5.365,-5.364 z m -44.479,0 c 2.963,0 5.364,2.402 5.364,5.364 0,2.963 -2.4,5.363 -5.364,5.363 -2.961,0 -5.363,-2.4 -5.363,-5.363 -0.001,-2.962 2.401,-5.364 5.363,-5.364 z m 12.026,37.06 C 33.495,51.67 32.184,50.818 31.9,49.484 L 29.742,39.331 v 11.478 2.321 1.445 13.602 3.768 c 0,1.644 -1.336,2.98 -2.979,2.98 -1.644,0 -2.98,-1.337 -2.98,-2.98 V 68.177 54.574 53.129 h -1.96 v 1.445 13.603 3.768 c 0,1.644 -1.335,2.98 -2.978,2.98 -1.644,0 -2.981,-1.337 -2.981,-2.98 V 68.177 54.574 53.129 50.808 39.736 l -2.072,9.747 C 13.508,50.817 12.197,51.67 10.864,51.386 9.529,51.101 8.678,49.789 8.962,48.455 l 0.295,-1.383 c 0.002,-0.012 0,-0.023 0.003,-0.034 L 12.871,30.05 c 0.077,-0.367 0.239,-0.693 0.452,-0.972 0.756,-1.258 4.726,-2.217 9.524,-2.217 4.014,0 7.454,0.67 8.915,1.626 0.021,0.015 0.041,0.033 0.064,0.049 0.108,0.076 0.207,0.152 0.291,0.23 0.034,0.032 0.063,0.068 0.095,0.101 0.041,0.047 0.085,0.093 0.12,0.141 0.241,0.295 0.426,0.644 0.51,1.042 l 3.612,16.988 c 0.016,0.079 0.016,0.157 0.026,0.235 l 0.251,1.182 c 0.282,1.335 -0.568,2.647 -1.903,2.932 z M 47.501,75.094 H 43.438 V 14.157 h 4.063 z M 80.619,49.756 c -1.075,0.349 -2.226,-0.238 -2.575,-1.311 l -3.824,-11.77 3.217,16.542 c 0.259,1.34 -0.617,2.635 -1.955,2.895 -0.191,0.038 -0.38,0.046 -0.566,0.038 h -1.122 v 12.027 3.768 c 0,1.644 -1.145,2.98 -2.551,2.98 -1.411,0 -2.557,-1.337 -2.557,-2.98 V 68.177 56.149 h -2.811 v 12.028 3.768 c 0,1.644 -1.146,2.98 -2.553,2.98 -1.409,0 -2.556,-1.337 -2.556,-2.98 V 68.177 56.149 H 59.66 v -0.002 c -0.192,0.01 -0.389,0.004 -0.587,-0.036 -1.339,-0.26 -2.214,-1.555 -1.955,-2.895 l 3.191,-16.41 -3.783,11.639 c -0.349,1.072 -1.5,1.659 -2.573,1.311 -1.075,-0.349 -1.661,-1.499 -1.313,-2.574 l 5.742,-17.675 c 0.063,-0.19 0.155,-0.357 0.263,-0.514 0.01,-0.014 0.019,-0.025 0.028,-0.038 0.207,-0.29 0.481,-0.52 0.798,-0.666 1.467,-0.849 4.415,-1.429 7.815,-1.429 3.404,0 6.354,0.582 7.822,1.432 0.304,0.143 0.57,0.363 0.775,0.642 0.018,0.025 0.036,0.048 0.05,0.074 0.103,0.153 0.194,0.315 0.254,0.499 l 5.743,17.675 c 0.348,1.075 -0.237,2.225 -1.311,2.574 z"
       id="path1535"
       inkscape:connector-curvature="0"
       style="display:inline;fill:#0852a9;fill-opacity:1" /></g></svg>