<?xml version="1.0" encoding="UTF-8" standalone="no"?>
<svg
   xmlns:dc="http://purl.org/dc/elements/1.1/"
   xmlns:cc="http://creativecommons.org/ns#"
   xmlns:rdf="http://www.w3.org/1999/02/22-rdf-syntax-ns#"
   xmlns:svg="http://www.w3.org/2000/svg"
   xmlns="http://www.w3.org/2000/svg"
   xmlns:sodipodi="http://sodipodi.sourceforge.net/DTD/sodipodi-0.dtd"
   xmlns:inkscape="http://www.inkscape.org/namespaces/inkscape"
   version="1.1"
   x="0px"
   y="0px"
   viewBox="0 0 67.800003 90.099998"
   xml:space="preserve"
   id="svg872"
   sodipodi:docname="sign.svg"
   width="67.800003"
   height="90.099998"
   inkscape:version="0.92.5 (2060ec1f9f, 2020-04-08)"><metadata
     id="metadata878"><rdf:RDF><cc:Work
         rdf:about=""><dc:format>image/svg+xml</dc:format><dc:type
           rdf:resource="http://purl.org/dc/dcmitype/StillImage" /><dc:title /></cc:Work></rdf:RDF></metadata><defs
     id="defs876" /><sodipodi:namedview
     pagecolor="#ffffff"
     bordercolor="#666666"
     borderopacity="1"
     objecttolerance="10"
     gridtolerance="10"
     guidetolerance="10"
     inkscape:pageopacity="0"
     inkscape:pageshadow="2"
     inkscape:window-width="2560"
     inkscape:window-height="1016"
     id="namedview874"
     showgrid="false"
     fit-margin-top="0"
     fit-margin-left="0"
     fit-margin-right="0"
     fit-margin-bottom="0"
     inkscape:zoom="6.656"
     inkscape:cx="6.8567308"
     inkscape:cy="32.6"
     inkscape:window-x="0"
     inkscape:window-y="27"
     inkscape:window-maximized="1"
     inkscape:current-layer="svg872" /><path
     d="M 60.4,8.1 H 38.1 v -7 C 38.1,0.5 37.6,0 37,0 H 30.6 C 30,0 29.5,0.5 29.5,1.1 v 7 H 7.4 C 3.3,8.1 0,11.4 0,15.5 V 42 c 0,4.1 3.3,7.4 7.4,7.4 H 29.6 V 89 c 0,0.6 0.5,1.1 1.1,1.1 h 6.4 c 0.6,0 1.1,-0.5 1.1,-1.1 V 49.4 h 22.2 c 4.1,0 7.4,-3.3 7.4,-7.4 V 15.5 c 0,-4.1 -3.3,-7.4 -7.4,-7.4 z M 9.5,43 C 8,43 6.9,41.8 6.9,40.4 c 0,-1.4 1.2,-2.6 2.6,-2.6 1.5,0 2.6,1.2 2.6,2.6 0,1.4 -1.2,2.6 -2.6,2.6 z m 0,-23.2 c -1.5,0 -2.6,-1.2 -2.6,-2.6 0,-1.5 1.2,-2.6 2.6,-2.6 1.5,0 2.6,1.2 2.6,2.6 0,1.4 -1.2,2.6 -2.6,2.6 z M 58.3,43 c -1.5,0 -2.6,-1.2 -2.6,-2.6 0,-1.4 1.2,-2.6 2.6,-2.6 1.4,0 2.6,1.2 2.6,2.6 0,1.4 -1.1,2.6 -2.6,2.6 z m 0,-23.2 c -1.5,0 -2.6,-1.2 -2.6,-2.6 0,-1.5 1.2,-2.6 2.6,-2.6 1.4,0 2.6,1.2 2.6,2.6 0.1,1.4 -1.1,2.6 -2.6,2.6 z"
     id="path866"
     inkscape:connector-curvature="0"
     style="fill:#784421" /><path
     style="fill:#ffffff;fill-opacity:1;stroke-width:0.15024039"
     d="M 8.4342548,19.495757 C 7.5124574,19.069034 7.0069712,18.214444 7.0069712,17.082748 c 0,-1.254669 1.1327891,-2.341163 2.4409185,-2.341163 1.5358653,0 2.3938783,0.801048 2.4874803,2.322334 0.04686,0.76155 -7.36e-4,0.99034 -0.295345,1.419861 -0.193162,0.281615 -0.534322,0.647665 -0.758133,0.813445 -0.514249,0.380909 -1.8241543,0.487158 -2.4476372,0.198532 z"
     id="path1586"
     inkscape:connector-curvature="0" /><path
     style="fill:#ffffff;fill-opacity:1;stroke-width:0.15024039"
     d="m 57.040595,19.371198 c -0.287247,-0.195202 -0.681917,-0.589932 -0.877044,-0.877179 -0.29812,-0.438859 -0.345858,-0.667248 -0.298921,-1.4301 0.0936,-1.521286 0.951615,-2.322334 2.48748,-2.322334 1.376363,0 2.440919,1.081149 2.440919,2.478966 0,1.391835 -0.920698,2.34396 -2.364267,2.44497 -0.724044,0.05066 -0.951462,0.0024 -1.388167,-0.294323 z"
     id="path1588"
     inkscape:connector-curvature="0" /><path
     style="fill:#ffffff;fill-opacity:1;stroke-width:0.15024039"
     d="m 57.606634,42.844852 c -1.115257,-0.354203 -1.771538,-1.272898 -1.771538,-2.479888 0,-1.317204 0.917668,-2.324042 2.233446,-2.450472 1.42449,-0.136875 2.573096,0.844898 2.693987,2.30269 0.114613,1.382083 -0.790322,2.508132 -2.154923,2.681463 -0.326714,0.0415 -0.77715,0.01729 -1.000972,-0.05379 z"
     id="path1590"
     inkscape:connector-curvature="0" /><path
     style="fill:#ffffff;fill-opacity:1;stroke-width:0.15024039"
     d="M 8.7968708,42.843189 C 7.251124,42.37475 6.5461808,40.578924 7.3505458,39.15871 c 0.488573,-0.862641 1.3269821,-1.307489 2.3294228,-1.235959 1.3462234,0.09606 2.2849354,1.077682 2.2849354,2.389378 0,0.837378 -0.235258,1.37418 -0.85047,1.940564 -0.684948,0.630587 -1.5000061,0.838257 -2.3175632,0.590496 z"
     id="path1592"
     inkscape:connector-curvature="0" /></svg>